{
    "asset" : {
        "generator" : "Khronos glTF Blender I/O v1.3.48",
        "version" : "2.0"
    },
    "scene" : 0,
    "scenes" : [
        {
            "name" : "Scene",
            "nodes" : [
                0,
                1
            ]
        }
    ],
    "nodes" : [
        {
            "mesh" : 0,
            "name" : "Plane",
            "scale" : [
                16.332937240600586,
                16.332937240600586,
                16.332937240600586
            ],
            "translation" : [
                0,
                -0.11808788031339645,
                0
            ]
        },
        {
            "name" : "Camera",
            "rotation" : [
                0.4917396008968353,
                -0.11366034299135208,
                0.058458298444747925,
                0.8613107204437256
            ],
            "translation" : [
                -3.9683196544647217,
                12.486284255981445,
                12.876357078552246
            ]
        }
    ],
    "materials" : [
        {
            "doubleSided" : true,
            "emissiveFactor" : [
                0,
                0,
                0
            ],
            "name" : "Material.001",
            "normalTexture" : {
                "index" : 0,
                "texCoord" : 0
            },
            "pbrMetallicRoughness" : {
                "baseColorTexture" : {
                    "index" : 1,
                    "texCoord" : 0
                },
                "metallicFactor" : 0,
                "metallicRoughnessTexture" : {
                    "index" : 2,
                    "texCoord" : 0
                }
            }
        }
    ],
    "meshes" : [
        {
            "name" : "Plane",
            "primitives" : [
                {
                    "attributes" : {
                        "POSITION" : 0,
                        "NORMAL" : 1,
                        "TEXCOORD_0" : 2
                    },
                    "indices" : 3,
                    "material" : 0
                }
            ]
        }
    ],
    "textures" : [
        {
            "source" : 0
        },
        {
            "source" : 1
        },
        {
            "source" : 2
        }
    ],
    "images" : [
        {
            "mimeType" : "image/jpeg",
            "name" : "rocks_ground_05_nor_4k",
            "uri" : "rocks_ground_05_nor_4k.jpg"
        },
        {
            "mimeType" : "image/jpeg",
            "name" : "rocks_ground_05_rough_diff_4k",
            "uri" : "rocks_ground_05_rough_diff_4k.jpg"
        },
        {
            "mimeType" : "image/png",
            "name" : "rocks_ground_05_rough_4k",
            "uri" : "rocks_ground_05_rough_4k.png"
        }
    ],
    "accessors" : [
        {
            "bufferView" : 0,
            "componentType" : 5126,
            "count" : 758,
            "max" : [
                1,
                0.2128571718931198,
                1
            ],
            "min" : [
                -1,
                -0.09711822867393494,
                -1.00053071975708
            ],
            "type" : "VEC3"
        },
        {
            "bufferView" : 1,
            "componentType" : 5126,
            "count" : 758,
            "type" : "VEC3"
        },
        {
            "bufferView" : 2,
            "componentType" : 5126,
            "count" : 758,
            "type" : "VEC2"
        },
        {
            "bufferView" : 3,
            "componentType" : 5123,
            "count" : 3312,
            "type" : "SCALAR"
        }
    ],
    "bufferViews" : [
        {
            "buffer" : 0,
            "byteLength" : 9096,
            "byteOffset" : 0
        },
        {
            "buffer" : 0,
            "byteLength" : 9096,
            "byteOffset" : 9096
        },
        {
            "buffer" : 0,
            "byteLength" : 6064,
            "byteOffset" : 18192
        },
        {
            "buffer" : 0,
            "byteLength" : 6624,
            "byteOffset" : 24256
        }
    ],
    "buffers" : [
        {
            "byteLength" : 30880,
            "uri" : "terrain_lunar.bin"
        }
    ]
}
