{
    "asset" : {
        "generator" : "Khronos glTF Blender I/O v1.3.48",
        "version" : "2.0"
    },
    "scene" : 0,
    "scenes" : [
        {
            "name" : "Scene",
            "nodes" : [
                0,
                1,
                2
            ]
        }
    ],
    "nodes" : [
        {
            "mesh" : 0,
            "name" : "Cylinder",
            "scale" : [
                0.23399999737739563,
                1,
                0.23399999737739563
            ],
            "translation" : [
                0,
                1.6255228519439697,
                0
            ]
        },
        {
            "mesh" : 1,
            "name" : "Cylinder.001",
            "rotation" : [
                0,
                0,
                -0.7071067690849304,
                0.7071068286895752
            ],
            "scale" : [
                0.04521989822387695,
                0.18795408308506012,
                0.04521989822387695
            ],
            "translation" : [
                0,
                3.4015097618103027,
                0
            ]
        },
        {
            "mesh" : 2,
            "name" : "Cube",
            "scale" : [
                0.5184329152107239,
                0.8129533529281616,
                0.35153627395629883
            ],
            "translation" : [
                0,
                4.478814601898193,
                0
            ]
        }
    ],
    "meshes" : [
        {
            "name" : "Cylinder",
            "primitives" : [
                {
                    "attributes" : {
                        "POSITION" : 0,
                        "NORMAL" : 1,
                        "TEXCOORD_0" : 2
                    },
                    "indices" : 3
                }
            ]
        },
        {
            "name" : "Cylinder.001",
            "primitives" : [
                {
                    "attributes" : {
                        "POSITION" : 4,
                        "NORMAL" : 5,
                        "TEXCOORD_0" : 6
                    },
                    "indices" : 7
                }
            ]
        },
        {
            "name" : "Cube",
            "primitives" : [
                {
                    "attributes" : {
                        "POSITION" : 8,
                        "NORMAL" : 9,
                        "TEXCOORD_0" : 10
                    },
                    "indices" : 11
                }
            ]
        }
    ],
    "accessors" : [
        {
            "bufferView" : 0,
            "componentType" : 5126,
            "count" : 1609,
            "max" : [
                1.3809828758239746,
                1.9615473747253418,
                1.3809828758239746
            ],
            "min" : [
                -1.3809826374053955,
                -1.5542566776275635,
                -1.380982756614685
            ],
            "type" : "VEC3"
        },
        {
            "bufferView" : 1,
            "componentType" : 5126,
            "count" : 1609,
            "type" : "VEC3"
        },
        {
            "bufferView" : 2,
            "componentType" : 5126,
            "count" : 1609,
            "type" : "VEC2"
        },
        {
            "bufferView" : 3,
            "componentType" : 5123,
            "count" : 2544,
            "type" : "SCALAR"
        },
        {
            "bufferView" : 4,
            "componentType" : 5126,
            "count" : 576,
            "max" : [
                1,
                1,
                1
            ],
            "min" : [
                -1,
                -1.0594873428344727,
                -1
            ],
            "type" : "VEC3"
        },
        {
            "bufferView" : 5,
            "componentType" : 5126,
            "count" : 576,
            "type" : "VEC3"
        },
        {
            "bufferView" : 6,
            "componentType" : 5126,
            "count" : 576,
            "type" : "VEC2"
        },
        {
            "bufferView" : 7,
            "componentType" : 5123,
            "count" : 948,
            "type" : "SCALAR"
        },
        {
            "bufferView" : 8,
            "componentType" : 5126,
            "count" : 1500,
            "max" : [
                1,
                1,
                1
            ],
            "min" : [
                -1,
                -1.429776906967163,
                -1
            ],
            "type" : "VEC3"
        },
        {
            "bufferView" : 9,
            "componentType" : 5126,
            "count" : 1500,
            "type" : "VEC3"
        },
        {
            "bufferView" : 10,
            "componentType" : 5126,
            "count" : 1500,
            "type" : "VEC2"
        },
        {
            "bufferView" : 11,
            "componentType" : 5123,
            "count" : 2556,
            "type" : "SCALAR"
        }
    ],
    "bufferViews" : [
        {
            "buffer" : 0,
            "byteLength" : 19308,
            "byteOffset" : 0
        },
        {
            "buffer" : 0,
            "byteLength" : 19308,
            "byteOffset" : 19308
        },
        {
            "buffer" : 0,
            "byteLength" : 12872,
            "byteOffset" : 38616
        },
        {
            "buffer" : 0,
            "byteLength" : 5088,
            "byteOffset" : 51488
        },
        {
            "buffer" : 0,
            "byteLength" : 6912,
            "byteOffset" : 56576
        },
        {
            "buffer" : 0,
            "byteLength" : 6912,
            "byteOffset" : 63488
        },
        {
            "buffer" : 0,
            "byteLength" : 4608,
            "byteOffset" : 70400
        },
        {
            "buffer" : 0,
            "byteLength" : 1896,
            "byteOffset" : 75008
        },
        {
            "buffer" : 0,
            "byteLength" : 18000,
            "byteOffset" : 76904
        },
        {
            "buffer" : 0,
            "byteLength" : 18000,
            "byteOffset" : 94904
        },
        {
            "buffer" : 0,
            "byteLength" : 12000,
            "byteOffset" : 112904
        },
        {
            "buffer" : 0,
            "byteLength" : 5112,
            "byteOffset" : 124904
        }
    ],
    "buffers" : [
        {
            "byteLength" : 130016,
            "uri" : "data:application/octet-stream;base64,"
        }
    ]
}
